<?xml version="1.0" encoding="iso-8859-1"?>
<!-- Generator: Adobe Illustrator 19.0.0, SVG Export Plug-In . SVG Version: 6.00 Build 0)  -->
<svg version="1.1" id="Layer_1" xmlns="http://www.w3.org/2000/svg" xmlns:xlink="http://www.w3.org/1999/xlink" x="0px" y="0px"
	 viewBox="0 0 512.001 512.001" style="enable-background:new 0 0 512.001 512.001;" xml:space="preserve">
<path style="fill:#FFE98F;" d="M368.233,38.218C322.753,3.071,263.921-8.548,206.824,6.338
	C143.454,22.862,94.151,72.679,78.156,136.348c-19.805,78.83,11.481,158.701,78.08,201.7l99.732,32.876l99.732-32.884
	c23.969-15.526,44.134-36.514,58.664-61.15c16.591-28.131,25.36-60.348,25.36-93.17C439.724,126.361,413.666,73.329,368.233,38.218z
	"/>
<path style="fill:#FFDA44;" d="M368.233,38.218C335.781,13.139,296.533,0.05,255.968,0.01v370.913l99.732-32.884
	c23.969-15.526,44.134-36.514,58.664-61.15c16.591-28.131,25.36-60.348,25.36-93.17C439.724,126.361,413.666,73.329,368.233,38.218z
	"/>
<path style="fill:#FFFFFF;" d="M167.152,182.819h-31.347c0-66.265,53.905-120.177,120.163-120.177v31.351
	C206.994,93.994,167.152,133.841,167.152,182.819z"/>
<path style="fill:#FFAD41;" d="M302.988,182.819c0-25.93-21.093-47.026-47.02-47.026s-47.02,21.095-47.02,47.026
	c0,20.435,13.104,37.859,31.347,44.329v122.874h31.347V227.149C289.883,220.678,302.988,203.254,302.988,182.819z M255.968,198.495
	c-8.642,0-15.673-7.032-15.673-15.676s7.031-15.676,15.673-15.676c8.642,0,15.673,7.032,15.673,15.676
	C271.641,191.463,264.61,198.495,255.968,198.495z"/>
<path style="fill:#FFFFFF;" d="M340.083,268.642l-21.945-22.387c17.182-16.847,26.645-39.375,26.645-63.436h31.347
	C376.131,215.372,363.329,245.851,340.083,268.642z"/>
<path style="fill:#858585;" d="M176.962,417.31v15.676c0,43.569,35.442,79.015,79.006,79.015s79.006-35.446,79.006-79.015V417.31
	H176.962z"/>
<path style="fill:#565659;" d="M255.968,512c43.564,0,79.006-35.446,79.006-79.015v-15.676h-79.006"/>
<polygon style="fill:#AED5F3;" points="156.234,338.047 156.032,438.849 355.903,438.849 355.7,338.039 "/>
<polygon style="fill:#78B9EB;" points="255.968,338.047 255.765,438.849 355.903,438.849 355.7,338.039 "/>
<g>
</g>
<g>
</g>
<g>
</g>
<g>
</g>
<g>
</g>
<g>
</g>
<g>
</g>
<g>
</g>
<g>
</g>
<g>
</g>
<g>
</g>
<g>
</g>
<g>
</g>
<g>
</g>
<g>
</g>
</svg>
